# xmcd
#
# Track frame offsets:
#	150
#	22957
#	45262
#	69467
#	86667
#	109442
#	128692
#	141319
#	163883
#	183926
#	201742
#	219748
#	244799
#	263824
#	279432
#
# Disc length: 3981 seconds
#
# Revision: 0
# Processed by: cddbd v1.4PL0 Copyright (c) Steve Scherf et al.
# Submitted via: dBpowerAMP V4.0
#
DISCID=e20f8b0f
DTITLE=Tony Lucca - So Far
DYEAR=2001
DGENRE=Blues
TTITLE0=Honestly For You
TTITLE1=A Thousand Daydreams
TTITLE2=Too Late
TTITLE3=Satisfied
TTITLE4=So Tired
TTITLE5=Crown Love King
TTITLE6=Kind
TTITLE7=Hold You Tonight
TTITLE8=Understand
TTITLE9=Seen Some Better Days
TTITLE10=Melancholy Collar
TTITLE11=After All
TTITLE12=Make It Alright
TTITLE13=It's You
TTITLE14=Crazy
EXTD=Tony Lucca compilation CD he recently released in 2001
EXTT0=
EXTT1=
EXTT2=
EXTT3=
EXTT4=
EXTT5=
EXTT6=
EXTT7=
EXTT8=
EXTT9=
EXTT10=
EXTT11=
EXTT12=
EXTT13=
EXTT14=
PLAYORDER=
